{
  "source": "C:\\Users\\Peter\\Desktop\\stuff\\MIUN\\quantitative_research\\video_compression\\videos\\BVI-HD\\BVI-HD_CDVL_videos\\ORIG\\Hamster_1920x1080_60fps.mp4",
  "output": "C:\\Users\\Peter\\Desktop\\stuff\\MIUN\\quantitative_research\\video_compression\\compressed_videos\\BVI-HD\\av1\\2\\Hamster_1920x1080_60fps_av1.mkv",
  "codec": "av1",
  "ok": "Input #0, mov,mp4,m4a,3gp,3g2,mj2, from 'C:\\Users\\Peter\\Desktop\\stuff\\MIUN\\quantitative_research\\video_compression\\videos\\BVI-HD\\BVI-HD_CDVL_videos\\ORIG\\Hamster_1920x1080_60fps.mp4':\n  Metadata:\n    major_brand     : isom\n    minor_version   : 512\n    compatible_brands: isomiso2avc1mp41\n    encoder         : Lavf54.28.101\n  Duration: 00:00:05.00, start: 0.000000, bitrate: 208485 kb/s\n  Stream #0:0[0x1](und): Video: h264 (High 4:4:4 Predictive) (avc1 / 0x31637661), yuv420p(progressive), 1920x1080, 208481 kb/s, 60 fps, 60 tbr, 60 tbn (default)\n    Metadata:\n      handler_name    : VideoHandler\n      vendor_id       : [0][0][0][0]\n[out#0/matroska @ 0000018ff28c9100] Codec AVOption b:a (set bitrate (in bits/s)) has not been used for any stream. The most likely reason is either wrong type (e.g. a video option with no video streams) or that it is a private option of some decoder which was not actually used for any stream.\nStream mapping:\n  Stream #0:0 -> #0:0 (h264 (native) -> av1 (libsvtav1))\nPress [q] to stop, [?] for help\nSvt[info]: -------------------------------------------\nSvt[info]: SVT [version]:\tSVT-AV1 Encoder Lib v3.1.0-19-g6ecfe8ec\nSvt[info]: SVT [build]  :\tGCC 15.2.0\t 64 bit\nSvt[info]: LIB Build date: Aug 17 2025 11:37:13\nSvt[info]: -------------------------------------------\nSvt[info]: Level of Parallelism: 5\nSvt[info]: Number of PPCS 93\nSvt[info]: [asm level on system : up to avx2]\nSvt[info]: [asm level selected : up to avx2]\nSvt[info]: -------------------------------------------\nSvt[info]: SVT [config]: main profile\ttier (auto)\tlevel (auto)\nSvt[info]: SVT [config]: width / height / fps numerator / fps denominator \t\t: 1920 / 1080 / 60 / 1\nSvt[info]: SVT [config]: bit-depth / color format \t\t\t\t\t: 8 / YUV420\nSvt[info]: SVT [config]: preset / tune / pred struct \t\t\t\t\t: 4 / PSNR / random access\nSvt[info]: SVT [config]: gop size / mini-gop size / key-frame type \t\t\t: 321 / 16 / key frame\nSvt[info]: SVT [config]: BRC mode / target bitrate (kbps)\t\t\t\t: VBR / 2000 \nSvt[info]: SVT [config]: AQ mode / Variance Boost \t\t\t\t\t: 2 / 0\nSvt[info]: SVT [config]: sharpness / luminance-based QP bias \t\t\t\t: 0 / 0\nSvt[info]: SVT [config]: QP scale compress strength \t\t\t\t\t: 0\nSvt[info]: -------------------------------------------\nOutput #0, matroska, to 'C:\\Users\\Peter\\Desktop\\stuff\\MIUN\\quantitative_research\\video_compression\\compressed_videos\\BVI-HD\\av1\\2\\Hamster_1920x1080_60fps_av1.mkv':\n  Metadata:\n    major_brand     : isom\n    minor_version   : 512\n    compatible_brands: isomiso2avc1mp41\n    encoder         : Lavf62.3.100\n  Stream #0:0(und): Video: av1 (AV01 / 0x31305641), yuv420p(tv, progressive), 1920x1080, q=2-31, 2000 kb/s, 60 fps, 1k tbn (default)\n    Metadata:\n      encoder         : Lavc62.11.100 libsvtav1\n      handler_name    : VideoHandler\n      vendor_id       : [0][0][0][0]\n    Side data:\n      cpb: bitrate max/min/avg: 0/0/2000000 buffer size: 2000000 vbv_delay: N/A\nframe=    0 fps=0.0 q=0.0 size=       0KiB time=N/A bitrate=N/A speed=N/A elapsed=0:00:01.07    \nframe=    0 fps=0.0 q=0.0 size=       0KiB time=N/A bitrate=N/A speed=N/A elapsed=0:00:01.63    \nframe=    0 fps=0.0 q=0.0 size=       0KiB time=N/A bitrate=N/A speed=N/A elapsed=0:00:02.20    \nframe=    0 fps=0.0 q=0.0 size=       0KiB time=N/A bitrate=N/A speed=N/A elapsed=0:00:02.79    \nframe=    0 fps=0.0 q=0.0 size=       0KiB time=N/A bitrate=N/A speed=N/A elapsed=0:00:03.34    \nframe=    0 fps=0.0 q=0.0 size=       0KiB time=N/A bitrate=N/A speed=N/A elapsed=0:00:03.86    \nframe=    0 fps=0.0 q=0.0 size=       0KiB time=N/A bitrate=N/A speed=N/A elapsed=0:00:04.39    \nframe=    1 fps=0.2 q=12.0 size=       1KiB time=00:00:00.00 bitrate=N/A speed=   0x elapsed=0:00:04.95    \nframe=    1 fps=0.2 q=12.0 size=       1KiB time=00:00:00.00 bitrate=N/A speed=   0x elapsed=0:00:05.52    \nframe=    1 fps=0.2 q=12.0 size=       1KiB time=00:00:00.00 bitrate=N/A speed=   0x elapsed=0:00:06.09    \nframe=    5 fps=0.8 q=39.0 size=       1KiB time=00:00:00.06 bitrate=  85.4kbits/s speed=0.01x elapsed=0:00:06.66    \nframe=    7 fps=1.0 q=39.0 size=       1KiB time=00:00:00.10 bitrate=  57.0kbits/s speed=0.0139x elapsed=0:00:07.18    \nframe=    9 fps=1.2 q=36.0 size=       1KiB time=00:00:00.13 bitrate=  42.7kbits/s speed=0.0173x elapsed=0:00:07.69    \nframe=   12 fps=1.5 q=44.0 size=       1KiB time=00:00:00.16 bitrate=  34.2kbits/s speed=0.0201x elapsed=0:00:08.27    \nframe=   16 fps=1.8 q=44.0 size=       1KiB time=00:00:00.23 bitrate=  24.4kbits/s speed=0.0265x elapsed=0:00:08.82    \nframe=   19 fps=2.0 q=40.0 size=       1KiB time=00:00:00.30 bitrate=  19.0kbits/s speed=0.032x elapsed=0:00:09.36    \nframe=   21 fps=2.1 q=37.0 size=       1KiB time=00:00:00.33 bitrate=  17.1kbits/s speed=0.0336x elapsed=0:00:09.91    \nframe=   23 fps=2.2 q=40.0 size=       1KiB time=00:00:00.36 bitrate=  15.5kbits/s speed=0.0351x elapsed=0:00:10.45    \nframe=   26 fps=2.4 q=39.0 size=       1KiB time=00:00:00.41 bitrate=  13.7kbits/s speed=0.038x elapsed=0:00:10.97    \nframe=   28 fps=2.4 q=39.0 size=       1KiB time=00:00:00.45 bitrate=  12.7kbits/s speed=0.0391x elapsed=0:00:11.50    \nframe=   33 fps=2.7 q=27.0 size=       1KiB time=00:00:00.53 bitrate=  10.7kbits/s speed=0.0444x elapsed=0:00:12.01    \nframe=   36 fps=2.9 q=42.0 size=       1KiB time=00:00:00.58 bitrate=   9.8kbits/s speed=0.0464x elapsed=0:00:12.56    \nframe=   38 fps=2.9 q=41.0 size=       1KiB time=00:00:00.61 bitrate=   9.2kbits/s speed=0.0471x elapsed=0:00:13.09    \nframe=   41 fps=3.0 q=36.0 size=       1KiB time=00:00:00.66 bitrate=   8.5kbits/s speed=0.049x elapsed=0:00:13.61    \nframe=   43 fps=3.0 q=40.0 size=       1KiB time=00:00:00.70 bitrate=   8.1kbits/s speed=0.0495x elapsed=0:00:14.13    \nframe=   48 fps=3.3 q=40.0 size=       1KiB time=00:00:00.78 bitrate=   7.3kbits/s speed=0.0533x elapsed=0:00:14.69    \nframe=   51 fps=3.4 q=42.0 size=       1KiB time=00:00:00.83 bitrate=   6.8kbits/s speed=0.0548x elapsed=0:00:15.20    \nframe=   53 fps=3.4 q=39.0 size=       1KiB time=00:00:00.86 bitrate=   6.6kbits/s speed=0.055x elapsed=0:00:15.75    \nframe=   55 fps=3.4 q=42.0 size=       1KiB time=00:00:00.90 bitrate=   6.3kbits/s speed=0.0553x elapsed=0:00:16.28    \nframe=   60 fps=3.6 q=41.0 size=       1KiB time=00:00:00.98 bitrate=   5.8kbits/s speed=0.0584x elapsed=0:00:16.84    \nframe=   65 fps=3.7 q=22.0 size=       1KiB time=00:00:01.06 bitrate=   5.3kbits/s speed=0.0613x elapsed=0:00:17.39    \nframe=   68 fps=3.8 q=38.0 size=       1KiB time=00:00:01.11 bitrate=   5.1kbits/s speed=0.0621x elapsed=0:00:17.97    \nframe=   70 fps=3.8 q=41.0 size=       1KiB time=00:00:01.15 bitrate=   5.0kbits/s speed=0.0619x elapsed=0:00:18.56    \nframe=   71 fps=3.7 q=40.0 size=       1KiB time=00:00:01.16 bitrate=   4.9kbits/s speed=0.061x elapsed=0:00:19.13    \nframe=   75 fps=3.8 q=42.0 size=       1KiB time=00:00:01.23 bitrate=   4.6kbits/s speed=0.0626x elapsed=0:00:19.71    \nframe=   76 fps=3.7 q=42.0 size=       1KiB time=00:00:01.25 bitrate=   4.6kbits/s speed=0.0616x elapsed=0:00:20.28    \nframe=   80 fps=3.8 q=44.0 size=       1KiB time=00:00:01.31 bitrate=   4.3kbits/s speed=0.0631x elapsed=0:00:20.88    \nframe=   82 fps=3.8 q=44.0 size=       1KiB time=00:00:01.35 bitrate=   4.2kbits/s speed=0.063x elapsed=0:00:21.44    \nframe=   83 fps=3.8 q=41.0 size=       1KiB time=00:00:01.36 bitrate=   4.2kbits/s speed=0.0622x elapsed=0:00:21.98    \nframe=   85 fps=3.8 q=39.0 size=       1KiB time=00:00:01.40 bitrate=   4.1kbits/s speed=0.0622x elapsed=0:00:22.51    \nframe=   87 fps=3.8 q=41.0 size=       1KiB time=00:00:01.43 bitrate=   4.0kbits/s speed=0.0622x elapsed=0:00:23.06    \nframe=   90 fps=3.8 q=45.0 size=       1KiB time=00:00:01.48 bitrate=   3.8kbits/s speed=0.0627x elapsed=0:00:23.65    \nframe=   93 fps=3.8 q=37.0 size=       1KiB time=00:00:01.53 bitrate=   3.7kbits/s speed=0.0634x elapsed=0:00:24.20    \nframe=   97 fps=3.9 q=22.0 size=       1KiB time=00:00:01.60 bitrate=   3.6kbits/s speed=0.0646x elapsed=0:00:24.75    \nframe=  100 fps=4.0 q=44.0 size=       1KiB time=00:00:01.65 bitrate=   3.5kbits/s speed=0.0653x elapsed=0:00:25.26    \nframe=  103 fps=4.0 q=40.0 size=       1KiB time=00:00:01.70 bitrate=   3.4kbits/s speed=0.0659x elapsed=0:00:25.78    \nframe=  106 fps=4.0 q=44.0 size=       1KiB time=00:00:01.75 bitrate=   3.3kbits/s speed=0.0665x elapsed=0:00:26.30    \nframe=  110 fps=4.1 q=44.0 size=       1KiB time=00:00:01.81 bitrate=   3.1kbits/s speed=0.0677x elapsed=0:00:26.81    \nframe=  114 fps=4.2 q=44.0 size=       1KiB time=00:00:01.88 bitrate=   3.0kbits/s speed=0.0689x elapsed=0:00:27.33    \nframe=  117 fps=4.2 q=39.0 size=       1KiB time=00:00:01.93 bitrate=   2.9kbits/s speed=0.0694x elapsed=0:00:27.86    \nframe=  119 fps=4.2 q=40.0 size=       1KiB time=00:00:01.96 bitrate=   2.9kbits/s speed=0.0692x elapsed=0:00:28.40    \nframe=  123 fps=4.2 q=40.0 size=       1KiB time=00:00:02.03 bitrate=   2.8kbits/s speed=0.0702x elapsed=0:00:28.94    \nframe=  128 fps=4.3 q=43.0 size=       1KiB time=00:00:02.11 bitrate=   2.7kbits/s speed=0.0719x elapsed=0:00:29.45    \nframe=  131 fps=4.4 q=43.0 size=       1KiB time=00:00:02.16 bitrate=   2.6kbits/s speed=0.0723x elapsed=0:00:29.97    \nframe=  134 fps=4.4 q=44.0 size=       1KiB time=00:00:02.21 bitrate=   2.6kbits/s speed=0.0727x elapsed=0:00:30.48    \nframe=  138 fps=4.5 q=44.0 size=       1KiB time=00:00:02.28 bitrate=   2.5kbits/s speed=0.0737x elapsed=0:00:31.00    \nframe=  142 fps=4.5 q=43.0 size=       1KiB time=00:00:02.35 bitrate=   2.4kbits/s speed=0.0746x elapsed=0:00:31.52    \nframe=  147 fps=4.6 q=43.0 size=       1KiB time=00:00:02.43 bitrate=   2.3kbits/s speed=0.0759x elapsed=0:00:32.04    \nframe=  150 fps=4.6 q=44.0 size=       1KiB time=00:00:02.48 bitrate=   2.3kbits/s speed=0.0763x elapsed=0:00:32.55    \nframe=  154 fps=4.7 q=44.0 size=       1KiB time=00:00:02.51 bitrate=   2.3kbits/s speed=0.0761x elapsed=0:00:33.07    \nframe=  159 fps=4.7 q=43.0 size=       1KiB time=00:00:02.63 bitrate=   2.2kbits/s speed=0.0783x elapsed=0:00:33.63    \nframe=  163 fps=4.8 q=45.0 size=       1KiB time=00:00:02.70 bitrate=   2.1kbits/s speed=0.079x elapsed=0:00:34.16    \nframe=  166 fps=4.8 q=46.0 size=       1KiB time=00:00:02.75 bitrate=   2.1kbits/s speed=0.0793x elapsed=0:00:34.68    \nframe=  168 fps=4.8 q=46.0 size=       1KiB time=00:00:02.78 bitrate=   2.0kbits/s speed=0.079x elapsed=0:00:35.21    \nframe=  172 fps=4.8 q=44.0 size=       1KiB time=00:00:02.83 bitrate=   2.0kbits/s speed=0.0793x elapsed=0:00:35.73    \nframe=  176 fps=4.9 q=46.0 size=       1KiB time=00:00:02.91 bitrate=   2.0kbits/s speed=0.0804x elapsed=0:00:36.28    \nframe=  179 fps=4.9 q=45.0 size=       1KiB time=00:00:02.96 bitrate=   1.9kbits/s speed=0.0806x elapsed=0:00:36.80    \nframe=  181 fps=4.8 q=42.0 size=       1KiB time=00:00:03.00 bitrate=   1.9kbits/s speed=0.0803x elapsed=0:00:37.33    \nframe=  183 fps=4.8 q=45.0 size=       1KiB time=00:00:03.03 bitrate=   1.9kbits/s speed=0.08x elapsed=0:00:37.90    \nframe=  186 fps=4.8 q=47.0 size=       1KiB time=00:00:03.08 bitrate=   1.8kbits/s speed=0.0802x elapsed=0:00:38.45    \nframe=  189 fps=4.8 q=42.0 size=       1KiB time=00:00:03.13 bitrate=   1.8kbits/s speed=0.0804x elapsed=0:00:38.97    \nframe=  193 fps=4.9 q=32.0 size=       1KiB time=00:00:03.20 bitrate=   1.8kbits/s speed=0.081x elapsed=0:00:39.50    \nframe=  195 fps=4.9 q=46.0 size=       1KiB time=00:00:03.23 bitrate=   1.8kbits/s speed=0.0807x elapsed=0:00:40.04    \nframe=  198 fps=4.9 q=48.0 size=       1KiB time=00:00:03.28 bitrate=   1.7kbits/s speed=0.081x elapsed=0:00:40.55    \nframe=  199 fps=4.8 q=46.0 size=       1KiB time=00:00:03.30 bitrate=   1.7kbits/s speed=0.0803x elapsed=0:00:41.09    \nframe=  202 fps=4.9 q=47.0 size=       1KiB time=00:00:03.35 bitrate=   1.7kbits/s speed=0.0805x elapsed=0:00:41.63    \nframe=  205 fps=4.9 q=43.0 size=       1KiB time=00:00:03.40 bitrate=   1.7kbits/s speed=0.0806x elapsed=0:00:42.16    \nframe=  209 fps=4.9 q=32.0 size=       1KiB time=00:00:03.46 bitrate=   1.6kbits/s speed=0.0811x elapsed=0:00:42.72    \nframe=  213 fps=4.9 q=41.0 size=       1KiB time=00:00:03.53 bitrate=   1.6kbits/s speed=0.0817x elapsed=0:00:43.25    \nframe=  215 fps=4.9 q=44.0 size=       1KiB time=00:00:03.56 bitrate=   1.6kbits/s speed=0.0814x elapsed=0:00:43.80    \nframe=  217 fps=4.9 q=42.0 size=       1KiB time=00:00:03.60 bitrate=   1.6kbits/s speed=0.0812x elapsed=0:00:44.31    \nframe=  219 fps=4.9 q=44.0 size=       1KiB time=00:00:03.63 bitrate=   1.6kbits/s speed=0.081x elapsed=0:00:44.83    \nframe=  221 fps=4.9 q=41.0 size=       1KiB time=00:00:03.66 bitrate=   1.6kbits/s speed=0.0808x elapsed=0:00:45.40    \nframe=  225 fps=4.9 q=35.0 size=       1KiB time=00:00:03.73 bitrate=   1.5kbits/s speed=0.0813x elapsed=0:00:45.93    \nframe=  229 fps=4.9 q=43.0 size=       1KiB time=00:00:03.80 bitrate=   1.5kbits/s speed=0.0818x elapsed=0:00:46.45    \nframe=  233 fps=5.0 q=40.0 size=       1KiB time=00:00:03.86 bitrate=   1.5kbits/s speed=0.0823x elapsed=0:00:46.98    \nframe=  233 fps=4.9 q=40.0 size=       1KiB time=00:00:03.86 bitrate=   1.5kbits/s speed=0.0813x elapsed=0:00:47.53    \nframe=  237 fps=4.9 q=39.0 size=       1KiB time=00:00:03.90 bitrate=   1.5kbits/s speed=0.0811x elapsed=0:00:48.10    \nframe=  239 fps=4.9 q=42.0 size=       1KiB time=00:00:03.96 bitrate=   1.4kbits/s speed=0.0815x elapsed=0:00:48.65    \nframe=  241 fps=4.9 q=33.0 size=       1KiB time=00:00:04.00 bitrate=   1.4kbits/s speed=0.0813x elapsed=0:00:49.19    \nframe=  245 fps=4.9 q=40.0 size=       1KiB time=00:00:04.06 bitrate=   1.4kbits/s speed=0.0818x elapsed=0:00:49.70    \nframe=  249 fps=5.0 q=38.0 size=       1KiB time=00:00:04.13 bitrate=   1.4kbits/s speed=0.0823x elapsed=0:00:50.24    \nframe=  249 fps=4.9 q=38.0 size=       1KiB time=00:00:04.13 bitrate=   1.4kbits/s speed=0.0814x elapsed=0:00:50.80    \nframe=  253 fps=4.9 q=40.0 size=       1KiB time=00:00:04.20 bitrate=   1.4kbits/s speed=0.0817x elapsed=0:00:51.37    \nframe=  257 fps=5.0 q=29.0 size=       1KiB time=00:00:04.26 bitrate=   1.3kbits/s speed=0.0822x elapsed=0:00:51.90    \nframe=  261 fps=5.0 q=40.0 size=       1KiB time=00:00:04.33 bitrate=   1.3kbits/s speed=0.0826x elapsed=0:00:52.43    \nframe=  263 fps=5.0 q=42.0 size=       1KiB time=00:00:04.36 bitrate=   1.3kbits/s speed=0.0825x elapsed=0:00:52.95    \nframe=  265 fps=5.0 q=39.0 size=       1KiB time=00:00:04.40 bitrate=   1.3kbits/s speed=0.0822x elapsed=0:00:53.51    \nframe=  269 fps=5.0 q=42.0 size=       1KiB time=00:00:04.46 bitrate=   1.3kbits/s speed=0.0827x elapsed=0:00:54.03    \nframe=  273 fps=5.0 q=30.0 size=       1KiB time=00:00:04.53 bitrate=   1.3kbits/s speed=0.0831x elapsed=0:00:54.55    \nframe=  277 fps=5.0 q=46.0 size=       1KiB time=00:00:04.60 bitrate=   1.2kbits/s speed=0.0835x elapsed=0:00:55.11    \nframe=  281 fps=5.0 q=42.0 size=       1KiB time=00:00:04.66 bitrate=   1.2kbits/s speed=0.0838x elapsed=0:00:55.66    \nframe=  285 fps=5.1 q=46.0 size=       1KiB time=00:00:04.73 bitrate=   1.2kbits/s speed=0.0842x elapsed=0:00:56.20    \nframe=  293 fps=5.2 q=42.0 size=       1KiB time=00:00:04.86 bitrate=   1.2kbits/s speed=0.0858x elapsed=0:00:56.72    \n[out#0/matroska @ 0000018ff28c9100] video:1344KiB audio:0KiB subtitle:0KiB other streams:0KiB global headers:0KiB muxing overhead: 0.154773%\nframe=  300 fps=5.3 q=46.0 Lsize=    1346KiB time=00:00:04.98 bitrate=2212.7kbits/s speed=0.0876x elapsed=0:00:56.90    \n",
  "seconds": 57.4110267162323,
  "probe_out": {}
}